<svg xmlns:dc="http://purl.org/dc/elements/1.1/" xmlns:cc="http://creativecommons.org/ns#" xmlns:rdf="http://www.w3.org/1999/02/22-rdf-syntax-ns#" xmlns:svg="http://www.w3.org/2000/svg" xmlns="http://www.w3.org/2000/svg" xmlns:sodipodi="http://sodipodi.sourceforge.net/DTD/sodipodi-0.dtd" xmlns:inkscape="http://www.inkscape.org/namespaces/inkscape" version="1.1" x="0px" y="0px" viewBox="0 0 100 125"><g transform="translate(0,-952.36218)"><path style="font-size:medium;font-style:normal;font-variant:normal;font-weight:normal;font-stretch:normal;text-indent:0;text-align:start;text-decoration:none;line-height:normal;letter-spacing:normal;word-spacing:normal;text-transform:none;direction:ltr;block-progression:tb;writing-mode:lr-tb;text-anchor:start;baseline-shift:baseline;opacity:1;color:#000000;fill:#000000;fill-opacity:1;stroke:none;stroke-width:3.99999927999999990;marker:none;visibility:visible;display:inline;overflow:visible;enable-background:accumulate;font-family:Sans;-inkscape-font-specification:Sans" d="M 24 18 C 20.710596 18 18 20.7106 18 24 L 18 66 C 18 69.2894 20.710596 72 24 72 L 66 72 C 69.289404 72 72 69.2894 72 66 L 72 24 C 72 20.7106 69.289404 18 66 18 L 24 18 z M 24 22 L 66 22 C 67.142593 22 68 22.85741 68 24 L 68 66 C 68 67.1426 67.142593 68 66 68 L 24 68 C 22.857407 68 22 67.1426 22 66 L 22 24 C 22 22.85741 22.857407 22 24 22 z M 44.78125 26.96875 A 2.0002 2.0002 0 0 0 43 29 L 43 61 A 2.0002 2.0002 0 1 0 47 61 L 47 29 A 2.0002 2.0002 0 0 0 44.78125 26.96875 z M 77.84375 27.96875 A 2.0001996 2.0001996 0 0 0 77 31.71875 C 77.597943 32.06162 78 32.70091 78 33.46875 L 78 76 C 78 77.1426 77.142595 78 76 78 L 33.46875 78 C 32.700936 78 32.092878 77.5979 31.75 77 A 2.0078704 2.0078704 0 1 0 28.25 78.96875 C 29.284502 80.77275 31.258184 82 33.46875 82 L 76 82 C 79.289405 82 82 79.2894 82 76 L 82 33.46875 C 82 31.25821 80.804091 29.28451 79 28.25 A 2.0001996 2.0001996 0 0 0 77.84375 27.96875 z M 28.8125 43 A 2.0021961 2.0021961 0 1 0 29 47 L 38 47 A 2.0002 2.0002 0 1 0 38 43 L 29 43 A 2.0002 2.0002 0 0 0 28.8125 43 z M 51.8125 43 A 2.0021961 2.0021961 0 1 0 52 47 L 61 47 A 2.0002 2.0002 0 1 0 61 43 L 52 43 A 2.0002 2.0002 0 0 0 51.8125 43 z " transform="translate(0,952.36218)"/></g><text x="0" y="115" fill="#000000" font-size="5px" font-weight="bold" font-family="'Helvetica Neue', Helvetica, Arial-Unicode, Arial, Sans-serif">Created by emma mitchell</text><text x="0" y="120" fill="#000000" font-size="5px" font-weight="bold" font-family="'Helvetica Neue', Helvetica, Arial-Unicode, Arial, Sans-serif">from the Noun Project</text></svg>