<svg width="18" height="18" viewBox="0 0 18 18" fill="none" xmlns="http://www.w3.org/2000/svg">
<path fill-rule="evenodd" clip-rule="evenodd" d="M4.43619 3.0484C5.79095 2.00954 7.45959 1.46397 9.16639 1.50185C10.8732 1.53972 12.516 2.15877 13.8233 3.2567C14.1405 3.52309 14.1817 3.99617 13.9153 4.31337C13.649 4.63056 13.1759 4.67175 12.8587 4.40536C11.8128 3.52702 10.4986 3.03178 9.13312 3.00148C7.76768 2.97118 6.43276 3.40763 5.34895 4.23872C4.26514 5.06981 3.49731 6.24579 3.17233 7.57234C2.84735 8.89889 2.98468 10.2966 3.56162 11.5345C4.13856 12.7725 5.12058 13.7765 6.34541 14.3808C7.57024 14.9851 8.96457 15.1534 10.298 14.8579C11.6314 14.5625 12.8242 13.8209 13.6791 12.7558C14.3764 11.8871 14.8149 10.8456 14.953 9.75003H9.75001C9.33579 9.75003 9.00001 9.41425 9.00001 9.00003C9.00001 8.58582 9.33579 8.25003 9.75001 8.25003H15.75C15.9489 8.25003 16.1397 8.32905 16.2803 8.46971C16.421 8.61036 16.5 8.80113 16.5 9.00004C16.5 10.7073 15.9175 12.3634 14.8489 13.6948C13.7802 15.0261 12.2893 15.9531 10.6225 16.3224C8.95571 16.6917 7.21279 16.4813 5.68176 15.726C4.15072 14.9707 2.92319 13.7156 2.20202 12.1682C1.48085 10.6208 1.30919 8.87361 1.71541 7.21542C2.12164 5.55723 3.08143 4.08726 4.43619 3.0484Z" fill="#747474"/>
</svg>
