<svg width="18" height="18" viewBox="0 0 18 18" fill="none" xmlns="http://www.w3.org/2000/svg">
<path fill-rule="evenodd" clip-rule="evenodd" d="M4.13033 4.13033C3.35634 4.90432 3 6.29464 3 9C3 11.7054 3.35634 13.0957 4.13033 13.8697C4.90432 14.6437 6.29464 15 9 15C11.7054 15 13.0957 14.6437 13.8697 13.8697C14.6437 13.0957 15 11.7054 15 9C15 6.29464 14.6437 4.90432 13.8697 4.13033C13.0957 3.35634 11.7054 3 9 3C6.29464 3 4.90432 3.35634 4.13033 4.13033ZM3.06967 3.06967C4.32068 1.81866 6.30536 1.5 9 1.5C11.6946 1.5 13.6793 1.81866 14.9303 3.06967C16.1813 4.32068 16.5 6.30536 16.5 9C16.5 11.6946 16.1813 13.6793 14.9303 14.9303C13.6793 16.1813 11.6946 16.5 9 16.5C6.30536 16.5 4.32068 16.1813 3.06967 14.9303C1.81866 13.6793 1.5 11.6946 1.5 9C1.5 6.30536 1.81866 4.32068 3.06967 3.06967ZM8.25 6.75C8.25 6.33579 8.58579 6 9 6H9.0075C9.42171 6 9.7575 6.33579 9.7575 6.75C9.7575 7.16421 9.42171 7.5 9.0075 7.5H9C8.58579 7.5 8.25 7.16421 8.25 6.75ZM7.5 9C7.5 8.58579 7.83579 8.25 8.25 8.25H9C9.41421 8.25 9.75 8.58579 9.75 9V11.25C10.1642 11.25 10.5 11.5858 10.5 12C10.5 12.4142 10.1642 12.75 9.75 12.75H9C8.58579 12.75 8.25 12.4142 8.25 12V9.75C7.83579 9.75 7.5 9.41421 7.5 9Z" fill="#747474"/>
</svg>
