<svg width="18" height="18" viewBox="0 0 18 18" fill="none" xmlns="http://www.w3.org/2000/svg">
<path fill-rule="evenodd" clip-rule="evenodd" d="M5.25 3C5.25 2.58579 5.58579 2.25 6 2.25H12C12.4142 2.25 12.75 2.58579 12.75 3C12.75 3.41421 12.4142 3.75 12 3.75V7.32295L13.4208 10.1646C13.4729 10.2687 13.5 10.3836 13.5 10.5V12C13.5 12.4142 13.1642 12.75 12.75 12.75H9.75V15.75C9.75 16.1642 9.41421 16.5 9 16.5C8.58579 16.5 8.25 16.1642 8.25 15.75V12.75H5.25C4.83579 12.75 4.5 12.4142 4.5 12V10.5C4.5 10.3836 4.52711 10.2687 4.57918 10.1646L6 7.32295V3.75C5.58579 3.75 5.25 3.41421 5.25 3ZM7.5 3.75V7.5C7.5 7.61643 7.47289 7.73127 7.42082 7.83541L6 10.6771V11.25H12V10.6771L10.5792 7.83541C10.5271 7.73127 10.5 7.61643 10.5 7.5V3.75H7.5Z" fill="#747474"/>
</svg>
